<svg width="1440" height="649" viewBox="0 0 1440 649" fill="none" xmlns="http://www.w3.org/2000/svg">
<mask id="mask0_108_1609" style="mask-type:alpha" maskUnits="userSpaceOnUse" x="0" y="0" width="1440" height="649">
<rect width="1440" height="649" fill="white"/>
</mask>
<g mask="url(#mask0_108_1609)">
<path d="M860.187 443.422L902 385.587L808.359 333.214L760 400.103L837.453 443.422H860.187V443.422Z" fill="#F0F0F0"/>
<path fill-rule="evenodd" clip-rule="evenodd" d="M815 460.04H918V442.547H815V460.04ZM916.662 458.912H816.338V443.676H916.662V458.912Z" fill="#3F3D56"/>
<path d="M906.5 457.416C910.09 457.416 913 454.871 913 451.731C913 448.591 910.09 446.046 906.5 446.046C902.91 446.046 900 448.591 900 451.731C900 454.871 902.91 457.416 906.5 457.416Z" fill="#222F65"/>
<path d="M886.5 457.416C890.09 457.416 893 454.871 893 451.731C893 448.591 890.09 446.046 886.5 446.046C882.91 446.046 880 448.591 880 451.731C880 454.871 882.91 457.416 886.5 457.416Z" fill="#222F65"/>
<path d="M868.5 457.416C872.09 457.416 875 454.871 875 451.731C875 448.591 872.09 446.046 868.5 446.046C864.91 446.046 862 448.591 862 451.731C862 454.871 864.91 457.416 868.5 457.416Z" fill="#222F65"/>
<path d="M849.5 457.416C853.09 457.416 856 454.871 856 451.731C856 448.591 853.09 446.046 849.5 446.046C845.91 446.046 843 448.591 843 451.731C843 454.871 845.91 457.416 849.5 457.416Z" fill="#222F65"/>
<path d="M830.5 457.416C834.09 457.416 837 454.871 837 451.731C837 448.591 834.09 446.046 830.5 446.046C826.91 446.046 824 448.591 824 451.731C824 454.871 826.91 457.416 830.5 457.416Z" fill="#222F65"/>
<path d="M1042.46 257.941V213.268H1068V191.519H943V300.852H1049.85V290.162C1049.85 286.138 1051.68 282.278 1054.94 279.432C1058.19 276.587 1062.6 274.988 1067.2 274.988H1068V257.941H1042.46Z" fill="#F0F0F0"/>
<rect width="40.7171" height="36.1821" transform="matrix(0.977037 -0.21307 0.274136 0.961691 782.65 104.582)" fill="#F0F0F0"/>
<rect x="1097" y="474.035" width="84" height="14.8693" fill="#222F65"/>
<rect x="1075" y="398.814" width="123" height="13.9946" fill="#F0F0F0"/>
<rect x="735" y="553.629" width="524" height="0.874663" fill="#3F3D56"/>
<path fill-rule="evenodd" clip-rule="evenodd" d="M1066.04 554.504H1218.96C1228.92 554.494 1236.99 547.441 1237 538.737V290.379C1236.99 281.675 1228.92 274.622 1218.96 274.612H1066.04C1056.08 274.622 1048.01 281.675 1048 290.379V538.737C1048.01 547.441 1056.08 554.494 1066.04 554.504ZM1049.35 290.379C1049.36 282.324 1056.82 275.797 1066.04 275.788H1218.96C1228.18 275.797 1235.64 282.324 1235.65 290.379V538.737C1235.64 546.792 1228.18 553.319 1218.96 553.328H1066.04C1056.82 553.319 1049.36 546.792 1049.35 538.737V290.379Z" fill="#3F3D56"/>
<path fill-rule="evenodd" clip-rule="evenodd" d="M1121 283.358C1121 285.291 1122.79 286.857 1125 286.857C1127.21 286.855 1129 285.29 1129 283.358C1129 281.426 1127.21 279.86 1125 279.86C1122.79 279.86 1121 281.426 1121 283.358ZM1122.33 283.358C1122.33 282.07 1123.53 281.026 1125 281.026C1126.47 281.027 1127.67 282.071 1127.67 283.358C1127.67 284.647 1126.47 285.691 1125 285.691C1123.53 285.691 1122.33 284.647 1122.33 283.358Z" fill="#3F3D56"/>
<rect x="1135" y="282.484" width="30" height="0.874663" fill="#3F3D56"/>
<path d="M1226 291.23V338.462C1196.18 338.461 1172 317.315 1172 291.23H1226Z" fill="#222F65"/>
<path fill-rule="evenodd" clip-rule="evenodd" d="M1060 538.76H1226V291.23H1060V538.76ZM1224.66 537.584H1061.34V292.406H1224.66V537.584Z" fill="#3F3D56"/>
<path opacity="0.1" d="M1186.5 335.838C1196.72 335.838 1205 328.594 1205 319.657C1205 310.72 1196.72 303.476 1186.5 303.476C1176.28 303.476 1168 310.72 1168 319.657C1168 328.594 1176.28 335.838 1186.5 335.838Z" fill="black"/>
<path d="M1183.5 337.588C1193.72 337.588 1202 330.343 1202 321.406C1202 312.47 1193.72 305.225 1183.5 305.225C1173.28 305.225 1165 312.47 1165 321.406C1165 330.343 1173.28 337.588 1183.5 337.588Z" fill="#222F65"/>
<rect x="1067" y="300.852" width="26" height="7.87197" fill="#3F3D56"/>
<rect x="1081" y="379.571" width="26" height="7.87197" fill="#3F3D56"/>
<path fill-rule="evenodd" clip-rule="evenodd" d="M1082 410.185H1206V395.315H1082V410.185ZM1204.65 409.041H1083.35V396.459H1204.65V409.041Z" fill="#3F3D56"/>
<rect x="1075" y="443.422" width="123" height="13.9946" fill="#F0F0F0"/>
<rect x="1081" y="423.305" width="26" height="7.87197" fill="#3F3D56"/>
<path fill-rule="evenodd" clip-rule="evenodd" d="M1082 454.792H1206V439.923H1082V454.792ZM1204.65 453.649H1083.35V441.067H1204.65V453.649Z" fill="#3F3D56"/>
<path fill-rule="evenodd" clip-rule="evenodd" d="M1101 485.406H1186V469.662H1101V485.406ZM1184.65 484.281H1102.35V470.786H1184.65V484.281Z" fill="#3F3D56"/>
<path d="M1201 404.499C1201 406.897 1199.28 409.037 1196.7 409.849C1194.12 410.66 1191.24 409.969 1189.49 408.121L1189.48 408.115C1187.78 406.31 1187.52 403.778 1188.82 401.735C1190.12 399.691 1192.72 398.552 1195.37 398.865C1198.02 399.179 1200.18 400.879 1200.81 403.152C1200.81 403.153 1200.81 403.155 1200.81 403.156C1200.81 403.157 1200.82 403.158 1200.82 403.158C1200.94 403.597 1201 404.047 1201 404.499V404.499Z" fill="#222F65"/>
<path opacity="0.1" d="M1201 404.171C1201 406.708 1199.24 408.971 1196.59 409.829C1193.94 410.688 1190.98 409.957 1189.19 408.002L1189.19 407.996C1189.06 407.531 1189 407.054 1189 406.577C1189 404.04 1190.76 401.777 1193.41 400.919C1196.06 400.06 1199.02 400.791 1200.81 402.746C1200.81 402.748 1200.81 402.749 1200.81 402.751C1200.81 402.752 1200.81 402.752 1200.81 402.752C1200.94 403.217 1201 403.693 1201 404.171V404.171Z" fill="black"/>
<path d="M1197.5 412.809C1201.09 412.809 1204 410.263 1204 407.123C1204 403.983 1201.09 401.438 1197.5 401.438C1193.91 401.438 1191 403.983 1191 407.123C1191 410.263 1193.91 412.809 1197.5 412.809Z" fill="#222F65"/>
<path d="M1201 448.232C1201 450.63 1199.28 452.77 1196.7 453.582C1194.12 454.393 1191.24 453.702 1189.49 451.854L1189.48 451.848C1187.78 450.043 1187.52 447.511 1188.82 445.468C1190.12 443.424 1192.72 442.285 1195.37 442.598C1198.02 442.912 1200.18 444.613 1200.81 446.885C1200.81 446.887 1200.81 446.888 1200.81 446.889C1200.81 446.89 1200.82 446.891 1200.82 446.891C1200.94 447.33 1201 447.78 1201 448.232V448.232Z" fill="#222F65"/>
<path opacity="0.1" d="M1201 448.779C1201 451.315 1199.24 453.579 1196.59 454.437C1193.94 455.296 1190.98 454.564 1189.19 452.609L1189.19 452.603C1189.06 452.139 1189 451.662 1189 451.184C1189 448.648 1190.76 446.385 1193.41 445.526C1196.06 444.668 1199.02 445.399 1200.81 447.354C1200.81 447.356 1200.81 447.357 1200.81 447.358C1200.81 447.36 1200.81 447.36 1200.81 447.36C1200.94 447.825 1201 448.301 1201 448.779V448.779Z" fill="black"/>
<path d="M1197.5 457.416C1201.09 457.416 1204 454.871 1204 451.731C1204 448.591 1201.09 446.046 1197.5 446.046C1193.91 446.046 1191 448.591 1191 451.731C1191 454.871 1193.91 457.416 1197.5 457.416Z" fill="#222F65"/>
<rect x="1050" y="219.508" width="35" height="30.6132" fill="#F0F0F0"/>
<path fill-rule="evenodd" clip-rule="evenodd" d="M1178 234.377C1178 238.242 1181.58 241.375 1186 241.375C1190.42 241.37 1194 238.24 1194 234.377C1194 230.513 1190.42 227.38 1186 227.38C1181.58 227.38 1178 230.513 1178 234.377ZM1179.33 234.377C1179.33 231.157 1182.32 228.546 1186 228.546C1189.68 228.55 1192.66 231.158 1192.67 234.377C1192.67 237.598 1189.68 240.208 1186 240.208C1182.32 240.208 1179.33 237.598 1179.33 234.377Z" fill="#3F3D56"/>
<path fill-rule="evenodd" clip-rule="evenodd" d="M992 340.212H1009V325.342H992V340.212ZM1007.69 339.068H993.308V326.486H1007.69V339.068Z" fill="#3F3D56"/>
<path fill-rule="evenodd" clip-rule="evenodd" d="M1258 454.792H1275V439.923H1258V454.792ZM1273.69 453.649H1259.31V441.067H1273.69V453.649Z" fill="#3F3D56"/>
<path d="M930 352.373L932.998 353.795L943.198 358.637L959.665 366.451L969.262 350.769C971.087 347.793 971.494 344.3 970.392 341.06C969.29 337.82 966.77 335.099 963.387 333.497C956.044 330.005 946.981 331.088 940.96 336.177L940.955 336.182C939.511 337.403 938.292 338.815 937.343 340.368L930 352.373Z" fill="#2F2E41"/>
<path d="M975 509.966L973.069 529.978L965.827 530.888L961 508.147L975 509.966V509.966Z" fill="#FFB8B8"/>
<path d="M963.352 531.429C963.352 531.429 972.927 526.94 974.943 530.531C974.943 530.531 973.431 541.304 979.479 542.65C985.527 543.997 988.047 553.423 979.479 554.321C970.912 555.218 965.368 552.525 962.344 552.525C959.32 552.525 962.344 543.099 962.344 543.099L963.352 531.429Z" fill="#2F2E41"/>
<path d="M914 509.966L915.931 529.978L923.173 530.888L928 508.147L914 509.966V509.966Z" fill="#FFB8B8"/>
<path d="M926.648 531.429C926.648 531.429 917.073 526.94 915.057 530.531C915.057 530.531 916.569 541.304 910.521 542.65C904.473 543.997 901.953 553.423 910.521 554.321C919.088 555.218 924.632 552.525 927.656 552.525C930.68 552.525 927.656 543.099 927.656 543.099L926.648 531.429Z" fill="#2F2E41"/>
<path d="M954.5 355.956C961.956 355.956 968 350.669 968 344.148C968 337.626 961.956 332.34 954.5 332.34C947.044 332.34 941 337.626 941 344.148C941 350.669 947.044 355.956 954.5 355.956Z" fill="#FFB8B8"/>
<path d="M914 366.276L924.495 380.878L936.988 379.993L957.477 381.321C957.477 381.321 959.411 377.896 960.991 374.564C961.855 372.9 962.52 371.161 962.974 369.374C963.474 366.277 956.478 363.179 956.478 363.179C956.478 363.179 956.203 363.135 955.743 363.038C955.134 362.909 954.194 362.697 953.165 362.387C950.841 361.688 948.047 360.502 947.483 358.754C946.483 355.657 953.979 351.232 953.979 351.232L944.984 343.71C944.984 343.71 936.993 353.538 927.288 355.777C926.725 355.908 926.155 356.012 925.579 356.086C925.549 356.091 925.524 356.095 925.494 356.1C914.999 357.427 914 366.276 914 366.276Z" fill="#FFB8B8"/>
<path d="M919.264 362.953L913.477 366.922C913.477 366.922 908.741 385.887 910.319 391.18C911.898 396.472 909.793 401.324 909.793 402.206C909.793 403.088 905.058 436.167 905.058 436.167C905.058 436.167 895.587 453.809 905.584 452.044C915.581 450.28 911.898 432.638 911.898 432.638L924 401.765V375.743L919.264 362.953Z" fill="#FFB8B8"/>
<path d="M959.046 366.451L963.137 369.075L965.183 405.807L980.525 437.292C980.525 437.292 991.776 452.597 984.616 453.034C977.456 453.472 972.854 437.292 972.854 437.292L959.046 407.119L957 377.821L959.046 366.451Z" fill="#FFB8B8"/>
<path d="M933.734 368.201C933.734 368.201 943.821 374.391 959.96 372.18C959.96 372.18 964.499 380.14 961.978 384.561C959.456 388.983 965.004 399.596 966.012 400.922C967.021 402.249 978.621 429.664 982.656 459.29C986.69 488.916 997.786 509.257 988.203 511.91C978.621 514.563 958.951 517.658 956.934 515.005C954.917 512.352 951.891 446.467 951.891 446.467L946.343 471.671C946.343 471.671 953.908 514.563 948.36 515.447C942.813 516.332 908.013 513.679 909.021 508.372C910.03 503.066 920.117 475.209 920.117 475.209C920.117 475.209 919.613 419.494 929.7 408.881C929.7 408.881 933.734 403.133 928.187 395.616C922.639 388.099 923.143 376.16 923.143 376.16C923.143 376.16 927.178 376.16 933.734 368.201Z" fill="#2F2E41"/>
<path d="M925 356.264L933.08 372.574L935 371.693L926.642 355.955L925 356.264V356.264Z" fill="#2F2E41"/>
<path d="M953 362.953L959.452 375.198L961 375.079L960.474 372.995L955.636 363.601C955.013 363.473 954.052 363.261 953 362.953Z" fill="#2F2E41"/>
<path d="M932.377 353.352C933.366 356.208 936.167 358.254 939.484 358.544C942.802 358.834 945.989 357.311 947.574 354.68C941.208 347.21 946.668 342.518 957.01 338.968C958.603 336.314 958.251 333.059 956.119 330.73C950.346 330.068 944.548 331.78 940.343 335.391L940.338 335.395L932.991 347.625C931.933 349.382 931.712 351.447 932.377 353.352V353.352Z" fill="#2F2E41"/>
<path d="M947.5 348.083C948.328 348.083 949 346.909 949 345.459C949 344.01 948.328 342.836 947.5 342.836C946.672 342.836 946 344.01 946 345.459C946 346.909 946.672 348.083 947.5 348.083Z" fill="#FFB8B8"/>
<path d="M953 341.192L968.212 347.209L971 341.837C970.52 339.874 969.514 338.038 968.065 336.479L957.595 332.34L953 341.192Z" fill="#2F2E41"/>
<path d="M989.5 459.166C993.09 459.166 996 456.62 996 453.48C996 450.34 993.09 447.795 989.5 447.795C985.91 447.795 983 450.34 983 453.48C983 456.62 985.91 459.166 989.5 459.166Z" fill="#222F65"/>
<path d="M773.5 494.152C775.985 494.152 778 492.39 778 490.216C778 488.042 775.985 486.28 773.5 486.28C771.015 486.28 769 488.042 769 490.216C769 492.39 771.015 494.152 773.5 494.152Z" fill="#FF6584"/>
<rect x="794" y="510.771" width="1" height="43.7332" fill="#3F3D56"/>
<path d="M795 516.019C798.866 516.019 802 513.278 802 509.896C802 506.515 798.866 503.773 795 503.773C791.134 503.773 788 506.515 788 509.896C788 513.278 791.134 516.019 795 516.019Z" fill="#3F3D56"/>
<path d="M794 537.011C794 537.011 793.023 518.404 773 520.567Z" fill="#3F3D56"/>
</g>
</svg>
